#tb 0: 1/600
0,          0,          0,        1,   230400, 0x4aec80a3
0,         40,         40,        1,   230400, 0xb6c41452
0,         80,         80,        1,   230400, 0xa6c27f12
0,        120,        120,        1,   230400, 0x309bd2d2
0,        160,        160,        1,   230400, 0x597a7341
0,        200,        200,        1,   230400, 0x597a7341
0,        240,        240,        1,   230400, 0xd6d6c569
0,        280,        280,        1,   230400, 0x31413d89
0,        320,        320,        1,   230400, 0x464e42e9
0,        360,        360,        1,   230400, 0x502d7c71
0,        400,        400,        1,   230400, 0x502d7c71
0,        440,        440,        1,   230400, 0xc96f23d1
0,        480,        480,        1,   230400, 0xc96f23d1
0,        520,        520,        1,   230400, 0x5bfd2bc7
0,        560,        560,        1,   230400, 0x821640a7
0,        600,        600,        1,   230400, 0x8f001967
0,        640,        640,        1,   230400, 0x406ba109
0,        680,        680,        1,   230400, 0x85d99b50
0,        720,        720,        1,   230400, 0x2fdb4018
0,        760,        760,        1,   230400, 0xfa127259
0,        800,        800,        1,   230400, 0xe6427b9b
0,        840,        840,        1,   230400, 0xe6427b9b
0,        880,        880,        1,   230400, 0x3a279000
0,        920,        920,        1,   230400, 0x710755ee
0,        960,        960,        1,   230400, 0x76549d35
0,       1000,       1000,        1,   230400, 0xf4d0132c
0,       1040,       1040,        1,   230400, 0xf4d0132c
0,       1080,       1080,        1,   230400, 0x19d7ec14
0,       1120,       1120,        1,   230400, 0x19d7ec14
0,       1160,       1160,        1,   230400, 0x5f24b7e1
